HIERARCHY
ROOT LeftUpLeg
{
	OFFSET -0.855111 -0.040800 -0.443847
	CHANNELS 6 Xposition Yposition Zposition Xrotation Yrotation Zrotation
	JOINT LeftLowLeg
	{
		OFFSET -0.288317 -0.259266 -4.271904
		CHANNELS 3 Xrotation Yrotation Zrotation
		JOINT LeftFoot
		{
			OFFSET 0.071002 -1.713238 -4.510423
			CHANNELS 3 Xrotation Yrotation Zrotation
			JOINT LeftToe
			{
				OFFSET -0.418889 1.135683 -0.921323
				CHANNELS 3 Xrotation Yrotation Zrotation
				End Site
				{
					OFFSET -0.363018 1.461935 -0.212233
				}
			}
		}
	}
}
MOTION
Frames: 75
Frame Time: 0.033333
-0.855111 -0.040800 -0.443847 14.148446 4.902653 -3.105591 -16.891862 -1.906736 -1.326628 1.335514 -4.438435 -9.093255 2.728111 1.403182 -1.251589 
-0.855111 -0.040800 -0.443847 14.430255 4.905394 -3.004676 -17.481978 -2.062500 -1.224327 1.612106 -4.227387 -9.409088 2.548936 1.662100 -1.163531 
-0.855111 -0.040800 -0.443847 14.493513 4.867211 -2.852423 -17.734226 -2.161148 -1.082894 1.787064 -4.043942 -9.721893 2.383926 1.817338 -1.064324 
-0.855111 -0.040800 -0.443847 14.207007 4.766814 -2.640766 -17.430919 -2.144624 -0.907294 1.783389 -3.912168 -9.996640 2.251219 1.749581 -0.932383 
-0.855111 -0.040800 -0.443847 13.626328 4.588284 -2.383657 -16.648072 -2.006091 -0.686824 1.523479 -3.810845 -10.215553 2.153269 1.529849 -0.806895 
-0.855111 -0.040800 -0.443847 12.993595 4.323503 -2.116116 -15.755008 -1.791871 -0.393749 0.929712 -3.674054 -10.377812 2.075345 1.419664 -0.786867 
-0.855111 -0.040800 -0.443847 12.023361 3.986891 -1.786999 -14.321285 -1.451730 -0.055003 0.520820 -3.571874 -10.566840 1.987660 0.966446 -0.601592 
-0.855111 -0.040800 -0.443847 11.209581 3.568204 -1.503552 -13.230949 -1.150039 0.256612 0.133781 -3.300472 -10.560132 1.914186 0.622666 -0.472691 
-0.855111 -0.040800 -0.443847 10.560708 3.091668 -1.248023 -12.432228 -0.888660 0.549910 -0.168147 -2.909857 -10.420835 1.797322 0.457741 -0.365394 
-0.855111 -0.040800 -0.443847 10.017323 2.592321 -1.006016 -11.781971 -0.671676 0.813773 -0.318814 -2.472984 -10.197863 1.623461 0.422107 -0.244761 
-0.855111 -0.040800 -0.443847 9.452114 2.115599 -0.768069 -11.045417 -0.505112 1.016751 -0.248182 -2.085780 -9.925873 1.423252 0.347346 -0.075959 
-0.855111 -0.040800 -0.443847 9.114413 1.627291 -0.527504 -10.569054 -0.427158 1.179730 -0.336009 -1.610558 -9.670365 1.203141 0.544230 0.070370 
-0.855111 -0.040800 -0.443847 8.815652 1.169516 -0.314451 -10.174770 -0.402024 1.329496 -0.381298 -1.108584 -9.431473 0.936939 0.504563 0.358475 
-0.855111 -0.040800 -0.443847 8.526168 0.733033 -0.129188 -9.802057 -0.397627 1.474274 -0.441692 -0.636218 -9.149233 0.707140 0.345585 0.660367 
-0.855111 -0.040800 -0.443847 8.288803 0.319420 0.040116 -9.514554 -0.418407 1.624001 -0.444519 -0.180742 -8.840750 0.518764 0.202268 0.912529 
-0.855111 -0.040800 -0.443847 8.219015 -0.058492 0.218802 -9.499761 -0.506176 1.790693 -0.186007 0.341297 -8.602905 0.299188 0.225663 1.115563 
-0.855111 -0.040800 -0.443847 8.355729 -0.346934 0.337505 -9.782635 -0.705470 1.983379 0.078458 0.821494 -8.363198 0.180632 0.179111 1.241451 
-0.855111 -0.040800 -0.443847 8.413914 -0.566317 0.445262 -9.946633 -0.897141 2.107020 0.285532 1.193605 -8.070124 0.073812 0.014639 1.413078 
-0.855111 -0.040800 -0.443847 8.431484 -0.742208 0.551484 -10.045413 -1.063766 2.209030 0.549170 1.499188 -7.769606 -0.008120 -0.130430 1.533554 
-0.855111 -0.040800 -0.443847 8.444647 -0.879853 0.659175 -10.139715 -1.213281 2.306522 0.805649 1.756950 -7.487699 -0.067195 -0.206402 1.568369 
-0.855111 -0.040800 -0.443847 8.487727 -0.964203 0.764734 -10.297515 -1.378703 2.386200 0.813404 1.960786 -7.228217 -0.119587 -0.251556 1.544896 
-0.855111 -0.040800 -0.443847 8.208292 -0.986945 0.863768 -9.917780 -1.460908 2.405982 0.765669 1.991976 -6.930232 -0.111523 -0.543727 1.536654 
-0.855111 -0.040800 -0.443847 7.875156 -0.995375 0.966762 -9.469939 -1.479464 2.402654 0.567468 1.966215 -6.508589 -0.086326 -0.751881 1.403257 
-0.855111 -0.040800 -0.443847 7.443891 -0.961803 1.058272 -8.846024 -1.446153 2.384013 0.445996 1.841541 -5.978658 0.030683 -0.962509 1.161791 
-0.855111 -0.040800 -0.443847 6.916856 -0.872400 1.129241 -8.047401 -1.389339 2.337604 0.349783 1.608116 -5.358831 0.243743 -1.208838 0.843655 
-0.855111 -0.040800 -0.443847 6.343282 -0.727065 1.176757 -7.184783 -1.354552 2.231642 -0.051989 1.281483 -4.672319 0.487086 -1.469892 0.493788 
-0.855111 -0.040800 -0.443847 5.967253 -0.637862 1.193981 -6.637657 -1.170190 2.149991 -0.110348 1.073591 -3.957240 0.518021 -0.967264 -0.015847 
-0.855111 -0.040800 -0.443847 5.480018 -0.450539 1.161346 -5.970947 -1.085508 1.932796 -0.368351 0.781492 -3.120709 0.526782 -0.818532 -0.336275 
-0.855111 -0.040800 -0.443847 5.055088 -0.219538 1.074123 -5.463784 -1.079073 1.628390 -0.356822 0.551932 -2.234107 0.498700 -0.549239 -0.613441 
-0.855111 -0.040800 -0.443847 4.732932 0.031519 0.938232 -5.177775 -1.117584 1.256185 -0.062310 0.412459 -1.309679 0.455181 -0.098682 -0.890248 
-0.855111 -0.040800 -0.443847 4.420860 0.309972 0.772021 -4.956495 -1.159041 0.806349 0.078376 0.253972 -0.305184 0.446862 0.179751 -1.107393 
-0.855111 -0.040800 -0.443847 4.361337 0.659091 0.527733 -5.133011 -1.274852 0.346479 0.335920 0.080437 0.798227 0.618527 0.402391 -1.425960 
-0.855111 -0.040800 -0.443847 4.163996 0.959630 0.312699 -4.948978 -1.355845 -0.145152 0.386819 -0.041750 1.570096 0.691228 0.534628 -1.456113 
-0.855111 -0.040800 -0.443847 4.110972 1.253655 0.060024 -4.967229 -1.470118 -0.615351 0.523638 -0.133571 2.142864 0.773657 0.566716 -1.368276 
-0.855111 -0.040800 -0.443847 4.284579 1.537319 -0.243678 -5.355388 -1.610305 -1.040134 0.844128 -0.196140 2.567294 0.895235 0.532293 -1.244128 
-0.855111 -0.040800 -0.443847 4.566017 1.762732 -0.555546 -5.884532 -1.702149 -1.422584 1.250297 -0.217756 2.811269 1.005012 0.508803 -1.076473 
-0.855111 -0.040800 -0.443847 4.842167 2.039057 -0.838802 -6.440803 -1.798895 -1.676558 1.528459 -0.400967 2.797258 1.115142 0.408138 -0.915647 
-0.855111 -0.040800 -0.443847 5.192630 2.325241 -1.080968 -7.128215 -1.901568 -1.821951 1.780196 -0.547784 2.533109 1.261201 0.324799 -0.744572 
-0.855111 -0.040800 -0.443847 5.444570 2.614026 -1.278690 -7.611224 -1.942475 -1.927610 1.923349 -0.798670 2.163180 1.435761 0.321268 -0.645535 
-0.855111 -0.040800 -0.443847 5.537076 2.892676 -1.431458 -7.770669 -1.899600 -2.020499 1.955143 -1.154559 1.746490 1.599348 0.392810 -0.619678 
-0.855111 -0.040800 -0.443847 5.521258 3.141749 -1.543077 -7.703958 -1.796363 -2.087897 1.953639 -1.479013 1.256740 1.680723 0.468065 -0.586323 
-0.855111 -0.040800 -0.443847 5.581491 3.360996 -1.653323 -7.718966 -1.698014 -2.149193 1.797661 -1.830539 0.695083 1.843316 0.577506 -0.596753 
-0.855111 -0.040800 -0.443847 5.643700 3.568332 -1.743982 -7.726415 -1.642834 -2.199459 1.568398 -2.164396 0.132591 1.910030 0.635040 -0.596611 
-0.855111 -0.040800 -0.443847 5.708801 3.722239 -1.816325 -7.751165 -1.576768 -2.231208 1.434912 -2.419362 -0.404482 1.964792 0.731943 -0.603889 
-0.855111 -0.040800 -0.443847 5.809698 3.818148 -1.875259 -7.868637 -1.502203 -2.241665 1.549712 -2.542246 -0.885305 2.034124 0.880293 -0.607190 
-0.855111 -0.040800 -0.443847 6.011439 3.888352 -1.929536 -8.204867 -1.478030 -2.232802 2.048066 -2.486506 -1.276858 2.086980 1.013051 -0.565268 
-0.855111 -0.040800 -0.443847 6.046837 3.881582 -1.940107 -8.308193 -1.384927 -2.280051 2.051156 -2.475802 -1.582069 2.039011 1.215870 -0.444388 
-0.855111 -0.040800 -0.443847 5.971284 3.835647 -1.905920 -8.222597 -1.305888 -2.329221 2.136173 -2.410306 -1.804592 1.957578 1.374385 -0.377344 
-0.855111 -0.040800 -0.443847 5.661771 3.726403 -1.837936 -7.731502 -1.173460 -2.393216 2.055311 -2.370316 -1.953147 1.811280 1.392513 -0.271061 
-0.855111 -0.040800 -0.443847 5.192964 3.546887 -1.743571 -6.967619 -0.990939 -2.446426 1.804582 -2.328575 -2.067730 1.610232 1.314911 -0.139643 
-0.855111 -0.040800 -0.443847 4.837046 3.308106 -1.625192 -6.413329 -0.830378 -2.420971 1.624548 -2.151592 -2.219502 1.405510 1.327878 -0.103307 
-0.855111 -0.040800 -0.443847 4.218013 2.921067 -1.430840 -5.465642 -0.623180 -2.544156 1.314570 -1.932761 -2.089705 1.101983 1.047474 0.029593 
-0.855111 -0.040800 -0.443847 3.775023 2.440192 -1.262447 -4.834813 -0.450607 -2.597224 1.144803 -1.516595 -2.007428 0.846030 0.776882 0.245810 
-0.855111 -0.040800 -0.443847 3.458358 1.937584 -1.105395 -4.461694 -0.375599 -2.597716 1.103249 -0.991820 -2.065099 0.565345 0.479388 0.606682 
-0.855111 -0.040800 -0.443847 3.203642 1.434479 -0.952238 -4.243142 -0.399411 -2.571576 1.166257 -0.423135 -2.297166 0.226982 0.126582 1.133176 
-0.855111 -0.040800 -0.443847 2.932098 0.901382 -0.804090 -4.032166 -0.460991 -2.553701 1.296780 0.148673 -2.678996 -0.162949 -0.300984 1.806381 
-0.855111 -0.040800 -0.443847 2.823238 0.368170 -0.646151 -4.063343 -0.558777 -2.453642 1.284077 0.610305 -3.077644 -0.418110 -0.516022 2.236935 
-0.855111 -0.040800 -0.443847 2.661676 -0.145190 -0.454368 -3.999789 -0.629624 -2.284517 1.419574 1.085174 -3.521035 -0.760634 -0.771592 2.664259 
-0.855111 -0.040800 -0.443847 2.505820 -0.641171 -0.232138 -3.944054 -0.670696 -2.042764 1.527591 1.550180 -3.947426 -1.065335 -1.007194 3.013322 
-0.855111 -0.040800 -0.443847 2.381853 -1.115974 0.016575 -3.951884 -0.687013 -1.726194 1.606035 2.003903 -4.331212 -1.286323 -1.195551 3.266634 
-0.855111 -0.040800 -0.443847 2.283652 -1.559761 0.286532 -4.032139 -0.691319 -1.333794 1.827592 2.463298 -4.686589 -1.455782 -1.344822 3.462863 
-0.855111 -0.040800 -0.443847 2.114607 -1.925147 0.574337 -4.035874 -0.704863 -0.969708 1.812318 2.826572 -4.927937 -1.534800 -1.548683 3.618782 
-0.855111 -0.040800 -0.443847 1.838494 -2.210360 0.847467 -3.870284 -0.702281 -0.666304 1.679954 3.042835 -5.038250 -1.557254 -1.743059 3.707415 
-0.855111 -0.040800 -0.443847 1.493449 -2.430176 1.104283 -3.581249 -0.664676 -0.409267 1.530493 3.178289 -5.025779 -1.509575 -1.889384 3.680826 
-0.855111 -0.040800 -0.443847 1.089177 -2.590896 1.341033 -3.178474 -0.590745 -0.197542 1.359905 3.253285 -4.906820 -1.395868 -1.994642 3.551992 
-0.855111 -0.040800 -0.443847 0.606838 -2.690619 1.551594 -2.635236 -0.496480 -0.043178 1.059824 3.242367 -4.705251 -1.237679 -2.111142 3.394833 
-0.855111 -0.040800 -0.443847 0.096013 -2.720617 1.717073 -2.006092 -0.402215 0.034529 0.805014 3.130588 -4.426484 -0.999131 -2.189027 3.182872 
-0.855111 -0.040800 -0.443847 -0.317515 -2.702662 1.841947 -1.525851 -0.327185 0.102120 0.710197 3.008045 -4.104883 -0.788250 -2.168905 2.943434 
-0.855111 -0.040800 -0.443847 -0.656510 -2.645489 1.928459 -1.163918 -0.271826 0.137054 0.685447 2.873615 -3.784419 -0.598807 -2.116986 2.720732 
-0.855111 -0.040800 -0.443847 -0.949410 -2.555303 1.979410 -0.863644 -0.229832 0.136162 0.665949 2.713495 -3.489079 -0.427718 -2.056237 2.525535 
-0.855111 -0.040800 -0.443847 -1.230373 -2.435704 1.998349 -0.542368 -0.187901 0.115595 0.612215 2.501435 -3.222863 -0.274578 -1.966640 2.334803 
-0.855111 -0.040800 -0.443847 -1.496977 -2.303810 1.989733 -0.245701 -0.165239 -0.012410 0.742823 2.300058 -2.964321 -0.176242 -1.958276 2.236815 
-0.855111 -0.040800 -0.443847 -1.672165 -2.144457 1.945181 -0.078414 -0.189163 -0.161842 0.769633 2.072222 -2.727580 -0.057475 -1.943544 2.150674 
-0.855111 -0.040800 -0.443847 -1.692311 -1.969757 1.861251 -0.151422 -0.240156 -0.299774 0.908580 1.883473 -2.527628 0.079473 -1.920739 2.043019 
-0.855111 -0.040800 -0.443847 -1.604889 -1.779738 1.744007 -0.406077 -0.304222 -0.424162 1.186004 1.734888 -2.379373 0.213331 -1.907590 1.940416 
